# xmcd
#
# Track frame offsets:
#	150
#	27471
#	44385
#	64322
#	81682
#	100212
#	119950
#	137463
#	153388
#	180834
#	201426
#	219649
#	238987
#	256820
#	301333
#	322176
#
# Disc length: 4608 seconds
#
# Revision: 0
# Processed by: cddbd v1.5.1PL2 Copyright (c) Steve Scherf et al.
# Submitted via: EasyCDDAExtractor 8.2.4.1
#
DISCID=f511fe10
DTITLE=R. Kelly - Heaven, I Need A Hug
DYEAR=2003
DGENRE=R&B
TTITLE0=I'm Coming Home
TTITLE1=More and More
TTITLE2=You Bring Me Joy
TTITLE3=Make U My Baby
TTITLE4=Forever
TTITLE5=Come To Daddy
TTITLE6=You Knock Me Out
TTITLE7=U All I Need
TTITLE8=Step In The Name Of Love
TTITLE9=How I Feel About U
TTITLE10=All I Wanna Do
TTITLE11=Faith
TTITLE12=Set Me Free
TTITLE13=I Believe I Can Fly Pt. II
TTITLE14=The World's Greatest
TTITLE15=Heaven, I Need A Hug
EXTD=
EXTT0=
EXTT1=
EXTT2=
EXTT3=
EXTT4=
EXTT5=
EXTT6=
EXTT7=
EXTT8=
EXTT9=
EXTT10=
EXTT11=
EXTT12=
EXTT13=
EXTT14=
EXTT15=
PLAYORDER=
